<?xml version="1.0" encoding="UTF-8" standalone="no"?>
<svg
   xmlns:dc="http://purl.org/dc/elements/1.1/"
   xmlns:cc="http://creativecommons.org/ns#"
   xmlns:rdf="http://www.w3.org/1999/02/22-rdf-syntax-ns#"
   xmlns:svg="http://www.w3.org/2000/svg"
   xmlns="http://www.w3.org/2000/svg"
   viewBox="0 0 461.60001 471.92499"
   height="472"
   width="472"
   xml:space="preserve"
   version="1.1"
   id="svg2">
   <metadata
     id="metadata8"><rdf:RDF><cc:Work
         rdf:about=""><dc:format>image/svg+xml</dc:format><dc:type
           rdf:resource="http://purl.org/dc/dcmitype/StillImage" /><dc:title></dc:title></cc:Work></rdf:RDF></metadata><defs
     id="defs6" /><g
     transform="matrix(1.25,0,0,-1.25,0,471.925)"
     id="g10"><g
       transform="scale(0.1,0.1)"
       id="g12"><path
         id="path14"
         style="fill:#006400;fill-opacity:1;fill-rule:evenodd;stroke:none"
         d="m 2421.32,635.461 c 22.07,290.988 -384.64,95.937 -504.36,43.039 -17.59,-102.789 21.09,-194.469 42.03,-301.34 16.16,-82.601 18.89,-258.711 84.04,-279.91 68.17,-22.1992 209.14,45.301 294.25,78.93 111.65,44.121 202.1,88.929 238.17,143.5 81.89,123.879 -24.71,283.32 -196.15,229.679 26.14,32.871 38.61,40.789 42.02,86.102 z m 553.44,394.699 c -117.31,24.54 -213.21,53.4 -301.21,86.1 -3.1,1.17 -10.75,0.51 -14,0 -105.92,-14.1 -40.37,-140.569 -21.06,-208.069 45.65,-159.691 67.02,-332.382 91.09,-502.339 30.86,-15.18 57.83,10.757 84.05,21.519 19.95,73.188 -11.04,149.508 -21.01,215.258 91.05,88.512 178.6,180.723 266.18,272.73 56.81,-18.359 121.6,-28.539 196.16,-28.687 18.4,24.199 41.37,43.707 42.02,86.09 -96.26,29.868 -211.17,34.198 -322.22,57.398 z m 56.04,753.51 c -34.42,-32.16 -58.52,-110.35 -84.1,-179.43 -21.66,-58.56 -78.18,-150.16 -70.03,-193.72 10.01,-53.23 193.54,-139.57 238.21,-165.02 99.03,-56.57 169.2,-97.62 266.15,-136.41 23.82,16.27 42.19,38.13 42.06,78.93 -61.93,60.97 -165.49,79.33 -231.17,136.4 57.74,90.78 49.69,199.9 133.08,258.3 78.59,55.07 189.22,41.97 280.24,100.54 9.2,24.44 13.89,78.79 -7,93.23 -114.96,-25.78 -246.45,-72.87 -315.27,-122.01 15.39,170.6 -170.53,205.44 -252.17,129.19 z M 578.965,3061.04 C 381.594,2829.9 213.254,2477.68 249.719,2020.48 282.379,1610.92 452.016,1317.33 698.051,1094.73 940.953,875.07 1292.7,717.141 1706.8,750.262 c 395.12,31.699 696.28,206.078 910.68,452.108 208.04,238.77 375.89,588.81 343.23,1040.58 -29.24,405.34 -223.39,717.64 -448.33,925.74 -227.8,210.83 -581.01,386.47 -1015.73,351.64 -402.79,-32.27 -720.638,-228.5 -917.685,-459.29 z m 1162.855,710.48 c 574.57,37.89 1055.2,-210.23 1359.05,-495.18 294.54,-276.26 556.98,-739.93 588.41,-1284.56 C 3725.32,1367.47 3482.83,921.859 3198.93,606.75 2898.7,273.449 2494.7,40.1797 1944.98,3.96875 1380.21,-33.3086 909.613,196.531 592.973,491.961 268.285,794.809 43.6094,1195.85 4.51563,1776.49 -36.0195,2378.83 202.156,2844.14 480.891,3161.52 c 139.035,158.33 312.179,301.05 525.389,409.05 206.23,104.48 462.21,182.9 735.54,200.95" /><path
         id="path18"
         style="fill:#006400;fill-opacity:1;fill-rule:evenodd;stroke:none"
         d="M 747.078,2989.29 C 629.742,2861.79 530.16,2679.62 522.914,2436.71 c -11.465,-384.69 188.84,-637.16 455.34,-775.07 568.696,-294.17 1247.776,153.56 1176.876,854 -43.11,426.41 -416.28,768.77 -882.65,724.82 -230.54,-21.71 -408.433,-124.08 -525.402,-251.17 z m 623.472,394.69 c 388.5,39 698.14,-109.56 903.69,-322.94 191.88,-199.23 342.95,-500.74 315.22,-897.04 -43.28,-618.74 -543.01,-1033.39 -1099.82,-1033.39 -324.16,0 -559.335,119.65 -756.57,301.43 -204.984,188.89 -382.734,501.17 -350.257,932.9 23.515,312.68 154.82,520.15 315.238,688.93 154.64,162.71 382.079,300.97 672.499,330.11" /><path
         id="path22"
         style="fill:#006400;fill-opacity:1;fill-rule:evenodd;stroke:none"
         d="m 1720.81,2946.22 c 8.39,-20.1 7.7,-49.51 7.01,-78.92 -67.82,-49.21 -191.13,-28.72 -301.24,-28.72 -112.37,0 -225.65,10.97 -308.21,-14.35 -30.48,-86 -6.29,-228 -14.03,-337.29 81.38,-12.91 182.31,-7.18 294.23,-7.18 91.52,0 244.44,28.5 252.18,-50.22 9.9,-100.43 -160.52,-64.6 -238.17,-64.6 -118.07,0 -203.79,0 -301.21,0 -24.87,-153.95 15.25,-374.45 -21.04,-516.7 -141.193,-71.71 -119.084,96.05 -119.084,251.19 0,230.68 0,344.67 0,574.1 0,141.08 -14.433,265.08 98.074,287.04 101.05,19.76 226.14,0 336.25,0 106.12,0 216.48,11.48 315.24,-14.35" /><path
         id="path26"
         style="fill:#006400;fill-opacity:1;fill-rule:evenodd;stroke:none"
         d="m 3135.89,1345.95 c -59.21,35.03 -130.71,57.48 -182.18,100.45 43.33,106.46 74.44,349.99 231.21,272.69 125.5,-61.86 -18.53,-292.39 -49.03,-373.14" /><path
         id="path30"
         style="fill:#006400;fill-opacity:1;fill-rule:evenodd;stroke:none"
         d="m 2680.55,1030.16 c 88.69,-38.301 180.15,-73.75 287.21,-93.281 -32.05,-75.149 -119.15,-155.168 -196.15,-208.137 -20.49,110.617 -53.51,208.399 -91.06,301.418" /><path
         id="path34"
         style="fill:#006400;fill-opacity:1;fill-rule:evenodd;stroke:none"
         d="M 2281.25,728.742 C 2457.65,574.719 2180.91,472.18 2036.03,448.91 c -12.54,68.399 -38.64,123.051 -42.02,200.899 105.42,16.433 164.91,79.851 287.24,78.933" /><path
         id="path36"
         style="fill:#006400;fill-opacity:1;fill-rule:evenodd;stroke:none"
         d="m 2491.36,348.469 c -78.43,-108.637 -232.26,-140 -378.25,-179.477 -30.99,64.008 -39.62,150.758 -63.08,222.52 136.34,13.668 431.08,237.187 441.33,-43.043" /></g></g></svg>
