<?xml version="1.0" encoding="UTF-8" standalone="no"?>
<svg
   xmlns:dc="http://purl.org/dc/elements/1.1/"
   xmlns:cc="http://creativecommons.org/ns#"
   xmlns:rdf="http://www.w3.org/1999/02/22-rdf-syntax-ns#"
   xmlns:svg="http://www.w3.org/2000/svg"
   xmlns="http://www.w3.org/2000/svg"
   viewBox="0 0 461.60001 471.92499"
   height="471.92499"
   width="461.60001"
   xml:space="preserve"
   version="1.1"
   id="svg2"><metadata
     id="metadata8"><rdf:RDF><cc:Work
         rdf:about=""><dc:format>image/svg+xml</dc:format><dc:type
           rdf:resource="http://purl.org/dc/dcmitype/StillImage" /><dc:title></dc:title></cc:Work></rdf:RDF></metadata><defs
     id="defs6" /><g
     transform="matrix(1.25,0,0,-1.25,0,471.925)"
     id="g10"><g
       transform="scale(0.1,0.1)"
       id="g12"><path
         id="path14"
         style="fill:#231f20;fill-opacity:1;fill-rule:evenodd;stroke:none"
         d="m 2421.32,635.461 c 22.07,290.988 -384.64,95.937 -504.36,43.039 -17.59,-102.789 21.09,-194.469 42.03,-301.34 16.16,-82.601 18.89,-258.711 84.04,-279.91 68.17,-22.1992 209.14,45.301 294.25,78.93 111.65,44.121 202.1,88.929 238.17,143.5 81.89,123.879 -24.71,283.32 -196.15,229.679 26.14,32.871 38.61,40.789 42.02,86.102 z m 553.44,394.699 c -117.31,24.54 -213.21,53.4 -301.21,86.1 -3.1,1.17 -10.75,0.51 -14,0 -105.92,-14.1 -40.37,-140.569 -21.06,-208.069 45.65,-159.691 67.02,-332.382 91.09,-502.339 30.86,-15.18 57.83,10.757 84.05,21.519 19.95,73.188 -11.04,149.508 -21.01,215.258 91.05,88.512 178.6,180.723 266.18,272.73 56.81,-18.359 121.6,-28.539 196.16,-28.687 18.4,24.199 41.37,43.707 42.02,86.09 -96.26,29.868 -211.17,34.198 -322.22,57.398 z m 56.04,753.51 c -34.42,-32.16 -58.52,-110.35 -84.1,-179.43 -21.66,-58.56 -78.18,-150.16 -70.03,-193.72 10.01,-53.23 193.54,-139.57 238.21,-165.02 99.03,-56.57 169.2,-97.62 266.15,-136.41 23.82,16.27 42.19,38.13 42.06,78.93 -61.93,60.97 -165.49,79.33 -231.17,136.4 57.74,90.78 49.69,199.9 133.08,258.3 78.59,55.07 189.22,41.97 280.24,100.54 9.2,24.44 13.89,78.79 -7,93.23 -114.96,-25.78 -246.45,-72.87 -315.27,-122.01 15.39,170.6 -170.53,205.44 -252.17,129.19 z M 578.965,3061.04 C 381.594,2829.9 213.254,2477.68 249.719,2020.48 282.379,1610.92 452.016,1317.33 698.051,1094.73 940.953,875.07 1292.7,717.141 1706.8,750.262 c 395.12,31.699 696.28,206.078 910.68,452.108 208.04,238.77 375.89,588.81 343.23,1040.58 -29.24,405.34 -223.39,717.64 -448.33,925.74 -227.8,210.83 -581.01,386.47 -1015.73,351.64 -402.79,-32.27 -720.638,-228.5 -917.685,-459.29 z m 1162.855,710.48 c 574.57,37.89 1055.2,-210.23 1359.05,-495.18 294.54,-276.26 556.98,-739.93 588.41,-1284.56 C 3725.32,1367.47 3482.83,921.859 3198.93,606.75 2898.7,273.449 2494.7,40.1797 1944.98,3.96875 1380.21,-33.3086 909.613,196.531 592.973,491.961 268.285,794.809 43.6094,1195.85 4.51563,1776.49 -36.0195,2378.83 202.156,2844.14 480.891,3161.52 c 139.035,158.33 312.179,301.05 525.389,409.05 206.23,104.48 462.21,182.9 735.54,200.95" /><path
         id="path16"
         style="fill:#ffffff;fill-opacity:1;fill-rule:evenodd;stroke:none"
         d="M 698.051,3053.87 C 537.633,2885.09 406.328,2677.62 382.813,2364.94 c -32.477,-431.73 145.273,-744.01 350.257,-932.9 197.235,-181.78 432.41,-301.43 756.57,-301.43 556.81,0 1056.54,414.65 1099.82,1033.39 27.73,396.3 -123.34,697.81 -315.22,897.04 -205.55,213.38 -515.19,361.94 -903.69,322.94 -290.42,-29.14 -517.859,-167.4 -672.499,-330.11 z m 798.599,466.46 c 434.72,34.83 787.93,-140.81 1015.73,-351.64 224.94,-208.1 419.09,-520.4 448.33,-925.74 32.66,-451.77 -135.19,-801.81 -343.23,-1040.58 C 2403.08,956.34 2101.92,781.961 1706.8,750.262 1292.7,717.141 940.953,875.07 698.051,1094.73 c -246.035,222.6 -415.672,516.19 -448.332,925.75 -36.465,457.2 131.875,809.42 329.246,1040.56 197.047,230.79 514.895,427.02 917.685,459.29" /><path
         id="path18"
         style="fill:#231f20;fill-opacity:1;fill-rule:evenodd;stroke:none"
         d="M 747.078,2989.29 C 629.742,2861.79 530.16,2679.62 522.914,2436.71 c -11.465,-384.69 188.84,-637.16 455.34,-775.07 568.696,-294.17 1247.776,153.56 1176.876,854 -43.11,426.41 -416.28,768.77 -882.65,724.82 -230.54,-21.71 -408.433,-124.08 -525.402,-251.17 z m 623.472,394.69 c 388.5,39 698.14,-109.56 903.69,-322.94 191.88,-199.23 342.95,-500.74 315.22,-897.04 -43.28,-618.74 -543.01,-1033.39 -1099.82,-1033.39 -324.16,0 -559.335,119.65 -756.57,301.43 -204.984,188.89 -382.734,501.17 -350.257,932.9 23.515,312.68 154.82,520.15 315.238,688.93 154.64,162.71 382.079,300.97 672.499,330.11" /><path
         id="path20"
         style="fill:#ffffff;fill-opacity:1;fill-rule:evenodd;stroke:none"
         d="m 1405.57,2960.57 c -110.11,0 -235.2,19.76 -336.25,0 -112.507,-21.96 -98.074,-145.96 -98.074,-287.04 0,-229.43 0,-343.42 0,-574.1 0,-155.14 -22.109,-322.9 119.084,-251.19 36.29,142.25 -3.83,362.75 21.04,516.7 97.42,0 183.14,0 301.21,0 77.65,0 248.07,-35.83 238.17,64.6 -7.74,78.72 -160.66,50.22 -252.18,50.22 -111.92,0 -212.85,-5.73 -294.23,7.18 7.74,109.29 -16.45,251.29 14.03,337.29 82.56,25.32 195.84,14.35 308.21,14.35 110.11,0 233.42,-20.49 301.24,28.72 0.69,29.41 1.38,58.82 -7.01,78.92 -98.76,25.83 -209.12,14.35 -315.24,14.35 z m -133.09,279.89 c 466.37,43.95 839.54,-298.41 882.65,-724.82 70.9,-700.44 -608.18,-1148.17 -1176.876,-854 -266.5,137.91 -466.805,390.38 -455.34,775.07 7.246,242.91 106.828,425.08 224.164,552.58 116.969,127.09 294.862,229.46 525.402,251.17" /><path
         id="path22"
         style="fill:#231f20;fill-opacity:1;fill-rule:evenodd;stroke:none"
         d="m 1720.81,2946.22 c 8.39,-20.1 7.7,-49.51 7.01,-78.92 -67.82,-49.21 -191.13,-28.72 -301.24,-28.72 -112.37,0 -225.65,10.97 -308.21,-14.35 -30.48,-86 -6.29,-228 -14.03,-337.29 81.38,-12.91 182.31,-7.18 294.23,-7.18 91.52,0 244.44,28.5 252.18,-50.22 9.9,-100.43 -160.52,-64.6 -238.17,-64.6 -118.07,0 -203.79,0 -301.21,0 -24.87,-153.95 15.25,-374.45 -21.04,-516.7 -141.193,-71.71 -119.084,96.05 -119.084,251.19 0,230.68 0,344.67 0,574.1 0,141.08 -14.433,265.08 98.074,287.04 101.05,19.76 226.14,0 336.25,0 106.12,0 216.48,11.48 315.24,-14.35" /><path
         id="path24"
         style="fill:#ffffff;fill-opacity:1;fill-rule:evenodd;stroke:none"
         d="m 3184.92,1719.09 c -156.77,77.3 -187.88,-166.23 -231.21,-272.69 51.47,-42.97 122.97,-65.42 182.18,-100.45 30.5,80.75 174.53,311.28 49.03,373.14 z m 98.05,-64.61 c 68.82,49.14 200.31,96.23 315.27,122.01 20.89,-14.44 16.2,-68.79 7,-93.23 -91.02,-58.57 -201.65,-45.47 -280.24,-100.54 -83.39,-58.4 -75.34,-167.52 -133.08,-258.3 65.68,-57.07 169.24,-75.43 231.17,-136.4 0.13,-40.8 -18.24,-62.66 -42.06,-78.93 -96.95,38.79 -167.12,79.84 -266.15,136.41 -44.67,25.45 -228.2,111.79 -238.21,165.02 -8.15,43.56 48.37,135.16 70.03,193.72 25.58,69.08 49.68,147.27 84.1,179.43 81.64,76.25 267.56,41.41 252.17,-129.19" /><path
         id="path26"
         style="fill:#231f20;fill-opacity:1;fill-rule:evenodd;stroke:none"
         d="m 3135.89,1345.95 c -59.21,35.03 -130.71,57.48 -182.18,100.45 43.33,106.46 74.44,349.99 231.21,272.69 125.5,-61.86 -18.53,-292.39 -49.03,-373.14" /><path
         id="path28"
         style="fill:#ffffff;fill-opacity:1;fill-rule:evenodd;stroke:none"
         d="m 2771.61,728.742 c 77,52.969 164.1,132.988 196.15,208.137 -107.06,19.531 -198.52,54.98 -287.21,93.281 37.55,-93.019 70.57,-190.801 91.06,-301.418 z m 525.37,244.02 c -0.65,-42.383 -23.62,-61.891 -42.02,-86.09 -74.56,0.148 -139.35,10.328 -196.16,28.687 -87.58,-92.007 -175.13,-184.218 -266.18,-272.73 9.97,-65.75 40.96,-142.07 21.01,-215.258 -26.22,-10.762 -53.19,-36.699 -84.05,-21.519 -24.07,169.957 -45.44,342.648 -91.09,502.339 -19.31,67.5 -84.86,193.969 21.06,208.069 3.25,0.51 10.9,1.17 14,0 88,-32.7 183.9,-61.56 301.21,-86.1 111.05,-23.2 225.96,-27.53 322.22,-57.398" /><path
         id="path30"
         style="fill:#231f20;fill-opacity:1;fill-rule:evenodd;stroke:none"
         d="m 2680.55,1030.16 c 88.69,-38.301 180.15,-73.75 287.21,-93.281 -32.05,-75.149 -119.15,-155.168 -196.15,-208.137 -20.49,110.617 -53.51,208.399 -91.06,301.418" /><path
         id="path32"
         style="fill:#ffffff;fill-opacity:1;fill-rule:evenodd;stroke:none"
         d="m 2050.03,391.512 c 23.46,-71.762 32.09,-158.512 63.08,-222.52 145.99,39.477 299.82,70.84 378.25,179.477 -10.25,280.23 -304.99,56.711 -441.33,43.043 z m -56.02,258.297 c 3.38,-77.848 29.48,-132.5 42.02,-200.899 144.88,23.27 421.62,125.809 245.22,279.832 -122.33,0.918 -181.82,-62.5 -287.24,-78.933 z M 2379.3,549.359 C 2550.74,603 2657.34,443.559 2575.45,319.68 2539.38,265.109 2448.93,220.301 2337.28,176.18 2252.17,142.551 2111.2,75.0508 2043.03,97.25 c -65.15,21.199 -67.88,197.309 -84.04,279.91 -20.94,106.871 -59.62,198.551 -42.03,301.34 119.72,52.898 526.43,247.949 504.36,-43.039 -3.41,-45.313 -15.88,-53.231 -42.02,-86.102" /><path
         id="path34"
         style="fill:#231f20;fill-opacity:1;fill-rule:evenodd;stroke:none"
         d="M 2281.25,728.742 C 2457.65,574.719 2180.91,472.18 2036.03,448.91 c -12.54,68.399 -38.64,123.051 -42.02,200.899 105.42,16.433 164.91,79.851 287.24,78.933" /><path
         id="path36"
         style="fill:#231f20;fill-opacity:1;fill-rule:evenodd;stroke:none"
         d="m 2491.36,348.469 c -78.43,-108.637 -232.26,-140 -378.25,-179.477 -30.99,64.008 -39.62,150.758 -63.08,222.52 136.34,13.668 431.08,237.187 441.33,-43.043" /></g></g></svg>